<?xml version="1.0" encoding="UTF-8"?>
<svg id="katman_1" data-name="katman 1" xmlns="http://www.w3.org/2000/svg" xmlns:xlink="http://www.w3.org/1999/xlink" viewBox="0 0 250 50">
  <defs>
    <style>
      .cls-1 {
        fill: url(#Adsız_degrade_6);
      }

      .cls-1, .cls-2, .cls-3, .cls-4, .cls-5, .cls-6, .cls-7, .cls-8, .cls-9, .cls-10, .cls-11 {
        stroke-width: 0px;
      }

      .cls-2 {
        fill: url(#Adsız_degrade_10-5);
      }

      .cls-3 {
        fill: url(#Adsız_degrade_10-2);
      }

      .cls-4 {
        fill: url(#Adsız_degrade_10-3);
      }

      .cls-5 {
        fill: url(#Adsız_degrade_10-4);
      }

      .cls-6 {
        fill: url(#Adsız_degrade_6-2);
      }

      .cls-7 {
        fill: url(#Adsız_degrade_6-3);
      }

      .cls-8 {
        fill: url(#Adsız_degrade_6-5);
      }

      .cls-9 {
        fill: url(#Adsız_degrade_6-4);
      }

      .cls-10 {
        fill: url(#Adsız_degrade_10);
      }

      .cls-11 {
        fill: #fff;
      }
    </style>
    <linearGradient id="Adsız_degrade_10" data-name="Adsız degrade 10" x1="33.03" y1="-20.47" x2="7.01" y2="-65.53" gradientTransform="translate(0 -18) scale(1 -1)" gradientUnits="userSpaceOnUse">
      <stop offset="0" stop-color="#07bb88"/>
      <stop offset=".33" stop-color="#00c18a"/>
      <stop offset=".67" stop-color="#00d89b"/>
      <stop offset="1" stop-color="#45e5b4"/>
    </linearGradient>
    <linearGradient id="Adsız_degrade_6" data-name="Adsız degrade 6" x1="22.98" y1="-28.93" x2="17.6" y2="-38.24" gradientTransform="translate(0 -18) scale(1 -1)" gradientUnits="userSpaceOnUse">
      <stop offset="0" stop-color="#8f63f4"/>
      <stop offset=".33" stop-color="#966df5"/>
      <stop offset=".67" stop-color="#9e78f6"/>
      <stop offset="1" stop-color="#a683f6"/>
    </linearGradient>
    <linearGradient id="Adsız_degrade_6-2" data-name="Adsız degrade 6" x1="151.96" y1="-35.97" x2="141.54" y2="-54.02" xlink:href="#Adsız_degrade_6"/>
    <linearGradient id="Adsız_degrade_6-3" data-name="Adsız degrade 6" x1="181.79" y1="-35.97" x2="171.37" y2="-54.02" xlink:href="#Adsız_degrade_6"/>
    <linearGradient id="Adsız_degrade_6-4" data-name="Adsız degrade 6" x1="134.05" y1="-37.62" x2="121.3" y2="-59.7" xlink:href="#Adsız_degrade_6"/>
    <linearGradient id="Adsız_degrade_6-5" data-name="Adsız degrade 6" x1="164.27" y1="-36.04" x2="154.83" y2="-52.39" xlink:href="#Adsız_degrade_6"/>
    <linearGradient id="Adsız_degrade_10-2" data-name="Adsız degrade 10" x1="91.98" y1="-35.82" x2="80.87" y2="-55.08" xlink:href="#Adsız_degrade_10"/>
    <linearGradient id="Adsız_degrade_10-3" data-name="Adsız degrade 10" x1="73.88" y1="-36.17" x2="63.23" y2="-54.62" xlink:href="#Adsız_degrade_10"/>
    <linearGradient id="Adsız_degrade_10-4" data-name="Adsız degrade 10" x1="109.61" y1="-36.08" x2="96.6" y2="-58.62" xlink:href="#Adsız_degrade_10"/>
    <linearGradient id="Adsız_degrade_10-5" data-name="Adsız degrade 10" x1="58.69" y1="-34.36" x2="48.62" y2="-51.82" xlink:href="#Adsız_degrade_10"/>
  </defs>
  <g>
    <rect class="cls-10" y="4.98" width="40.04" height="40.04" rx="3.64" ry="3.64"/>
    <g>
      <path class="cls-11" d="m29.76,23.13c-2-2.04-5.16-2.45-9.62-2.45s-7.92.43-9.96,2.54c-1.71,1.78-2.34,4.46-2.15,9.24,0,.54.04,2.26.38,3.9.48,2.31,1.44,3.65,2.85,3.99l.22.05h.23c2.33-.1,6.41-2.71,8.26-4.84,1.22,1.93,3.55,4.84,8.44,4.84.59,0,1.69-.21,2.47-1.6.33-.59.59-1.34.77-2.31.21-1.1.33-2.42.37-4.03.1-4.88-.56-7.58-2.27-9.33h0Zm-.98,9.26c-.07,3.16-.49,4.36-.69,4.74-3.18-.12-4.59-2.01-5.75-3.94-.1-.24-.36-1.16-.66-4.69-.01-.13-.02-.24-.03-.32l-1.62.15-1.62-.15v.1c-.33,3.58-.61,4.64-.7,4.91-1.07,1.44-4.16,3.43-5.67,3.86-.34-.62-.75-2.36-.75-4.63v-.06c-.15-3.71.23-5.83,1.24-6.88,1.23-1.28,3.93-1.54,7.61-1.54,4.21,0,6.26.41,7.3,1.47,1.02,1.04,1.42,3.13,1.35,6.99h0Z"/>
      <path class="cls-1" d="m25.53,18.35l-5.59-5.59-5.59,5.59-2.15-2.15,5.78-5.78c1.08-1.08,2.84-1.08,3.93,0l5.78,5.79-2.15,2.15h0Z"/>
    </g>
  </g>
  <g>
    <g>
      <path class="cls-6" d="m153.46,32.19v-13.35h-5.07v3.63h1.45v8.11l-7.69,1.44-.2-.16v-9.39h1.45v-3.63h-5.07v14.61l2.82,2.34,8.94-1.68c.45,1,1.45,1.71,2.62,1.71h2.09v-3.63h-1.33Z"/>
      <path class="cls-7" d="m183.29,32.19v-13.35h-5.07v3.63h1.45v8.11l-7.69,1.44-.2-.16v-9.39h1.45v-3.63h-5.07v14.61l2.82,2.34,8.94-1.68c.45,1,1.45,1.71,2.62,1.71h2.09v-3.63h-1.33Z"/>
      <path class="cls-9" d="m122.79,35.78l-.67-.64c-.36-.34-.59-.57-.87-.83l-1.01-.96v-12.11l2.92-2.4.96.33c.83.28,2.13.62,3.58.62s3.13-.33,4.21-.61l.93-.24,2.74,2.42v12.11h0v5.75l-.32.46c-.68.99-1.03,1.32-1.71,1.92l-.73.64-.93-.25c-1.03-.27-2.55-.59-3.99-.59-2.73,0-4.91,1.27-4.92,1.28l-1.88-3.1c.12-.07,3.03-1.8,6.8-1.8,1.38,0,2.78.22,3.92.47.04-.05.09-.1.13-.16v-3.95l-9.18,1.66h0Zm9.09-12.87c-1.2.26-2.69.5-4.17.5-1.24,0-2.51-.17-3.77-.51l-.07.06v8.84s.06.06.09.09l8-1.45v-4.69h0v-2.76l-.09-.08h0Z"/>
      <polygon class="cls-8" points="165.65 18.84 159.59 20.44 158.03 18.88 155.46 21.44 157.24 23.22 157.24 35.78 160.86 35.78 160.86 23.86 166.58 22.34 165.65 18.84"/>
    </g>
    <g>
      <path class="cls-3" d="m84.48,35.81c-1.64,0-3.18,0-4.18-.03l-1.76-.05v-1.77c0-1.93.78-3.66,2.31-5.13,1.21-1.16,2.75-2.05,4.23-2.91,1.95-1.13,3.42-2.05,4.24-3.14.11-.15,0-.35-.18-.35h-5.98c-.55,0-1,.45-1,1h-.9c-1.5,0-2.72-1.22-2.72-2.72h0c0-1.05.86-1.9,1.91-1.9h13.23v1.81c0,4.52-3.76,6.7-6.78,8.45-1.75,1.02-3.1,1.83-3.9,2.77-.12.14-.03.36.16.36,1.93,0,4.23,0,5.98-.01.51,0,.91-.42.91-.92h.93c1.49,0,2.71,1.2,2.71,2.7v1.83h-1.81c-.14,0-.53,0-1.08,0-1.42.01-3.96.03-6.3.03h0Z"/>
      <path class="cls-4" d="m74.64,35.81h-12.08c-1.47,0-2.66-1.19-2.66-2.66v-11.65c0-1.47,1.19-2.66,2.66-2.66h12.48v12.04c0,.26.21.46.46.46h.02c1.1.02,1.89,1.03,1.77,2.12-.15,1.32-1.28,2.36-2.65,2.36h0Zm-9.59-3.63h4.76c.88,0,1.6-.72,1.6-1.6v-8.13h-5.88c-1.11,0-2.01.9-2.01,2.01v6.18c0,.85.68,1.53,1.53,1.53Z"/>
      <path class="cls-5" d="m110.93,29.55h0c0-.9,0-1.88,0-2.89,0-2.86,0-5.53,0-7.82h0c-2,0-3.62,1.63-3.62,3.63,0,1.55,0,2.64,0,4.19,0,1.35,0,2.64,0,3.75v.35l-7.88,1.42v-.21c.06-.97.24-5.92.16-9.9-.04-2-1.83-3.5-3.81-3.2h0c.33,2.14.17,9.93.03,12.92-.06,1.15.38,2.25,1.19,3.02h0c.67.65,1.53.99,2.41.99.21,0,.41-.02.62-.06l7.29-1.32c0,1.12,0,2.55-.01,2.73,0,.06,0,.16-.01.27-.02.45-.31.85-.75.97,0,0,0,0,0,0-.98.27-1.96.41-2.91.41-.32,0-.65-.01-.97-.04-1.92-.15-3.67,1.08-4.15,2.94h0c1.28.33,3.21.72,5.12.72,1.27,0,2.58-.18,3.88-.54.91-.25,1.74-.75,2.4-1.42.95-.98.98-1.84,1-2.68,0-.13,0-.28.02-.45.03-.6,0-6.7,0-7.81h0Z"/>
      <path class="cls-2" d="m58.56,35.81h-5.78c-1.47,0-2.66-1.19-2.66-2.66V11.98h0c2,0,3.63,1.62,3.63,3.63v15.4c0,.66.53,1.19,1.19,1.19h0c2,0,3.63,1.62,3.63,3.63h0Z"/>
    </g>
  </g>
</svg>