<?xml version="1.0" encoding="UTF-8"?>
<svg id="katman_1" data-name="katman 1" xmlns="http://www.w3.org/2000/svg" xmlns:xlink="http://www.w3.org/1999/xlink" viewBox="0 0 250 50">
  <defs>
    <style>
      .cls-1 {
        fill: url(#Adsız_degrade_2);
      }

      .cls-1, .cls-2, .cls-3 {
        stroke-width: 0px;
      }

      .cls-2 {
        fill: #fff;
      }

      .cls-3 {
        fill: #e72512;
      }
    </style>
    <linearGradient id="Adsız_degrade_2" data-name="Adsız degrade 2" x1="22.06" y1="75.67" x2="22.06" y2="101.48" gradientTransform="translate(0 122) scale(1 -1)" gradientUnits="userSpaceOnUse">
      <stop offset="0" stop-color="#26619c"/>
      <stop offset="1" stop-color="#2f9c95"/>
    </linearGradient>
  </defs>
  <g>
    <path class="cls-2" d="m55.91,42.16v-12.84c0-1.69.41-3.25,1.23-4.66.82-1.41,2-2.54,3.54-3.37,1.54-.83,3.4-1.25,5.57-1.25,1.04,0,2.01.12,2.9.36.89.24,1.72.59,2.48,1.04.76.45,1.43.99,1.99,1.61h.04c.59-.62,1.27-1.16,2.03-1.61.76-.45,1.6-.8,2.5-1.04.9-.24,1.88-.36,2.92-.36,2.18,0,4.03.42,5.57,1.25s2.72,1.96,3.54,3.37c.82,1.41,1.23,2.97,1.23,4.66v12.84h-5.81v-12.84c0-.79-.21-1.51-.62-2.16s-.95-1.17-1.63-1.57c-.68-.39-1.44-.59-2.29-.59s-1.58.2-2.27.59c-.69.4-1.24.92-1.65,1.57-.41.65-.62,1.37-.62,2.16v12.84h-5.81v-12.84c0-.79-.21-1.51-.62-2.16s-.95-1.17-1.63-1.57c-.68-.39-1.44-.59-2.29-.59s-1.58.2-2.27.59c-.69.4-1.24.92-1.65,1.57-.41.65-.62,1.37-.62,2.16v12.84h-5.81,0Z"/>
    <path class="cls-2" d="m104.81,20.04c6.23,0,9.58,4.53,9.58,10.26,0,.64-.13,2.08-.13,2.08h-14.92c.34,3.77,3.26,5.72,6.48,5.72,3.47,0,6.23-2.37,6.23-2.37l2.08,3.86s-3.31,3.09-8.69,3.09c-7.16,0-11.61-5.17-11.61-11.32,0-6.65,4.53-11.32,10.98-11.32h0Zm4.15,8.65c-.08-2.92-1.91-4.49-4.28-4.49-2.75,0-4.66,1.7-5.17,4.49h9.45Z"/>
    <path class="cls-2" d="m118.44,25.17h-2.8v-4.28h2.92v-6.23h5.26v6.23h4.92v4.28h-4.92v8.39c0,3.56,2.8,4.07,4.28,4.07.59,0,.98-.08.98-.08v4.7s-.64.13-1.65.13c-3.01,0-8.98-.89-8.98-8.14v-9.07h0Z"/>
    <path class="cls-2" d="m144.46,28.6h.72v-.3c0-2.84-1.78-3.81-4.15-3.81-3.09,0-5.93,2.08-5.93,2.08l-2.03-3.86s3.35-2.67,8.48-2.67c5.68,0,8.98,3.14,8.98,8.6v13.52h-4.96v-1.78c0-.85.08-1.53.08-1.53h-.08s-1.65,3.81-6.57,3.81c-3.86,0-7.33-2.42-7.33-6.74,0-6.87,9.28-7.33,12.8-7.33h0Zm-4.11,9.87c2.84,0,4.87-3.05,4.87-5.68v-.51h-.93c-2.75,0-7.2.38-7.2,3.39,0,1.44,1.06,2.8,3.26,2.8h0Z"/>
    <path class="cls-2" d="m164.5,20.04c5.04,0,7.59,3.07,7.59,3.07l-1.1,1.47s-2.42-2.76-6.48-2.76c-4.96,0-9.07,3.76-9.07,9.59s4.11,9.5,9.07,9.5c4.66,0,7.08-3.11,7.08-3.11l.93,1.51s-2.75,3.37-8.01,3.37c-5.98,0-10.93-4.41-10.93-11.27s5.04-11.36,10.93-11.36h0Z"/>
    <path class="cls-2" d="m173.76,20.04h2.05l7.01,17.74c.41,1.09.77,2.44.77,2.44h.09s.36-1.36.77-2.44l7.01-17.74h2l-8.92,22.63h-1.82l-8.96-22.63h0Z"/>
  </g>
  <g>
    <path class="cls-1" d="m37.01,31.67c-2.98,2.98-6.95,4.62-11.17,4.62s-8.19-1.64-11.17-4.62c-2.98-2.98-4.63-6.94-4.63-11.15H0c0,14.26,11.57,25.81,25.85,25.81,7.14,0,13.6-2.89,18.28-7.56l-7.11-7.1Z"/>
    <path class="cls-3" d="m41.01,18.21l-5.48-5.47-5.48,5.47-5.58-5.58,7.5-7.49c1.96-1.96,5.16-1.96,7.12,0l7.5,7.49-5.58,5.58Z"/>
  </g>
</svg>