<?xml version="1.0" encoding="UTF-8"?>
<svg id="katman_1" data-name="katman 1" xmlns="http://www.w3.org/2000/svg" xmlns:xlink="http://www.w3.org/1999/xlink" viewBox="0 0 250 50">
  <defs>
    <style>
      .cls-1 {
        clip-path: url(#clippath);
      }

      .cls-2 {
        fill: none;
      }

      .cls-2, .cls-3, .cls-4 {
        stroke-width: 0px;
      }

      .cls-3 {
        fill: #43b7a8;
      }

      .cls-4 {
        fill: #fff;
      }
    </style>
    <clipPath id="clippath">
      <rect class="cls-2" x="5.01" y="14.35" width="39.92" height="21.32"/>
    </clipPath>
  </defs>
  <g>
    <path class="cls-3" d="m41.87,46.97H2.07c-1.16,0-2.07-.94-2.07-2.07V5.1c0-1.13.94-2.07,2.07-2.07h39.81c1.16,0,2.07.94,2.07,2.07v39.81c0,1.16-.94,2.07-2.07,2.07ZM2.07,4.41c-.39,0-.69.3-.69.69v39.81c0,.39.3.69.69.69h39.81c.39,0,.69-.3.69-.69V5.1c0-.39-.3-.69-.69-.69H2.07Z"/>
    <g class="cls-1">
      <g>
        <path class="cls-4" d="m41.13,17.8l-2.81-2.81c-.88-.88-2.29-.88-3.14,0l-2.81,2.81,2.29,2.29,2.09-2.09,2.09,2.09,2.29-2.29h0Z"/>
        <polygon class="cls-4" points="32.7 32.45 24.55 32.45 24.55 23 21.3 23 21.3 35.68 35.95 35.68 35.95 23 32.7 23 32.7 32.45"/>
        <path class="cls-4" d="m17.44,23h-9.2v-8.65h-3.25v21.32h3.25v-9.45h8.18v9.45h3.25v-10.47c0-1.24-.99-2.23-2.23-2.23v.03Z"/>
      </g>
    </g>
  </g>
  <g>
    <path class="cls-4" d="m60.63,11.88v11.36h-2.62v-4.66h-4.53v4.66h-2.62v-11.36h2.62v4.4h4.53v-4.4h2.62Z"/>
    <path class="cls-4" d="m65.14,23.4c-.86,0-1.52-.27-1.96-.81s-.66-1.33-.66-2.38v-5.38h2.56v4.82c0,.51.1.9.3,1.18.2.27.49.41.86.41.34,0,.67-.09.99-.27.32-.18.6-.5.85-.94v-5.18h2.56v5.52c0,.26.04.43.12.54.08.1.22.16.42.18v2.16c-.25.05-.45.09-.62.1-.17.02-.33.02-.46.02-.92,0-1.44-.36-1.57-1.07l-.05-.51c-.38.55-.86.96-1.43,1.22s-1.21.39-1.91.39Z"/>
    <path class="cls-4" d="m85.91,23.24h-2.56v-4.72c0-.55-.1-.96-.3-1.21-.2-.25-.46-.38-.78-.38-.17,0-.34.04-.52.11s-.34.18-.49.31-.29.29-.41.47c-.12.18-.22.38-.3.59v4.82h-2.56v-4.72c0-.55-.1-.96-.3-1.21-.2-.25-.46-.38-.78-.38-.34,0-.67.14-1,.41-.33.27-.56.63-.71,1.08v4.82h-2.56v-8.4h2.3v1.41c.31-.51.73-.9,1.26-1.17.53-.27,1.14-.4,1.85-.4.35,0,.66.04.92.13.26.09.49.2.68.35.19.15.35.32.46.52.12.2.2.41.26.63.32-.52.74-.92,1.26-1.21.52-.28,1.12-.42,1.79-.42.53,0,.96.1,1.29.3.33.2.58.45.76.77.18.31.3.66.36,1.03s.09.74.09,1.09v5.38Z"/>
    <path class="cls-4" d="m89.98,23.4c-.42,0-.8-.07-1.16-.2s-.66-.32-.92-.56c-.26-.24-.46-.52-.61-.85-.15-.33-.22-.68-.22-1.06,0-.42.09-.79.26-1.14s.42-.63.74-.88c.32-.25.7-.44,1.14-.58s.92-.21,1.46-.21c.35,0,.69.03,1.02.09.33.06.62.15.86.26v-.38c0-.97-.56-1.46-1.68-1.46-.46,0-.9.08-1.31.23s-.85.39-1.31.7l-.75-1.6c.55-.36,1.13-.63,1.73-.82.6-.18,1.23-.27,1.9-.27,1.27,0,2.25.3,2.94.9.69.6,1.04,1.47,1.04,2.62v2.16c0,.26.04.43.12.54.08.1.22.16.42.18v2.16c-.22.05-.43.09-.61.1s-.35.02-.5.02c-.48,0-.84-.09-1.09-.28s-.4-.45-.46-.79l-.05-.38c-.37.48-.82.85-1.34,1.1-.52.26-1.06.38-1.64.38Zm.75-1.84c.28,0,.55-.05.81-.14.26-.1.48-.22.65-.38.25-.19.37-.39.37-.61v-.8c-.22-.08-.47-.15-.73-.2-.26-.05-.5-.07-.73-.07-.47,0-.86.11-1.16.32-.3.21-.46.49-.46.83,0,.31.12.56.35.76.23.2.53.3.9.3Z"/>
    <path class="cls-4" d="m105.06,23.24h-2.56v-4.72c0-.55-.1-.96-.31-1.21-.21-.25-.48-.38-.82-.38-.18,0-.36.04-.54.11-.18.07-.36.18-.53.31s-.32.29-.46.47c-.13.18-.24.38-.31.59v4.82h-2.56v-8.4h2.3v1.41c.31-.5.75-.89,1.31-1.16s1.22-.41,1.95-.41c.54,0,.98.1,1.31.3.33.2.59.45.77.77.18.31.3.66.36,1.03s.09.74.09,1.09v5.38Z"/>
    <path class="cls-4" d="m109.14,23.4c-.42,0-.8-.07-1.16-.2s-.66-.32-.92-.56c-.26-.24-.46-.52-.61-.85-.15-.33-.22-.68-.22-1.06,0-.42.09-.79.26-1.14s.42-.63.74-.88c.32-.25.7-.44,1.14-.58s.92-.21,1.46-.21c.35,0,.69.03,1.02.09.33.06.62.15.86.26v-.38c0-.97-.56-1.46-1.68-1.46-.46,0-.9.08-1.31.23s-.85.39-1.31.7l-.75-1.6c.55-.36,1.13-.63,1.73-.82.6-.18,1.23-.27,1.9-.27,1.27,0,2.25.3,2.94.9.69.6,1.04,1.47,1.04,2.62v2.16c0,.26.04.43.12.54.08.1.22.16.42.18v2.16c-.22.05-.43.09-.61.1s-.35.02-.5.02c-.48,0-.84-.09-1.09-.28s-.4-.45-.46-.79l-.05-.38c-.37.48-.82.85-1.34,1.1-.52.26-1.06.38-1.64.38Zm.75-1.84c.28,0,.55-.05.81-.14.26-.1.48-.22.65-.38.25-.19.37-.39.37-.61v-.8c-.22-.08-.47-.15-.73-.2-.26-.05-.5-.07-.73-.07-.47,0-.86.11-1.16.32-.3.21-.46.49-.46.83,0,.31.12.56.35.76.23.2.53.3.9.3Z"/>
    <path class="cls-4" d="m119.45,23.4c-.71,0-1.42-.11-2.11-.34-.69-.23-1.28-.56-1.76-1l.91-1.57c.51.35,1.01.62,1.5.82s.95.29,1.4.29c.33,0,.59-.06.77-.18.18-.12.27-.29.27-.51s-.11-.4-.34-.54c-.23-.13-.63-.27-1.21-.42-.57-.16-1.04-.31-1.43-.46-.39-.15-.71-.31-.95-.5-.25-.18-.42-.39-.53-.62-.11-.23-.16-.51-.16-.83,0-.43.08-.82.26-1.17s.41-.65.7-.9.65-.44,1.06-.58c.41-.14.86-.21,1.34-.21.63,0,1.22.09,1.77.26.55.17,1.08.48,1.59.93l-.99,1.54c-.48-.33-.91-.57-1.28-.72-.37-.15-.74-.22-1.09-.22-.28,0-.51.06-.7.17-.19.11-.29.29-.29.54s.1.41.31.53c.21.12.59.25,1.16.38.6.16,1.1.32,1.51.48.41.16.74.34,1,.54.26.2.44.42.56.68.12.26.18.56.18.91,0,.83-.31,1.49-.93,1.98-.62.49-1.46.74-2.51.74Z"/>
    <path class="cls-4" d="m137.83,11.88v11.36h-2.62v-4.66h-4.53v4.66h-2.62v-11.36h2.62v4.4h4.53v-4.4h2.62Z"/>
    <path class="cls-4" d="m140.01,23.24v-11.36h5.12c.53,0,1.03.11,1.48.34.45.22.84.52,1.18.88.33.36.59.77.78,1.23.19.46.28.92.28,1.39,0,.35-.04.69-.13,1.02-.09.33-.21.63-.37.92s-.35.55-.58.78c-.23.23-.49.42-.78.58l2.5,4.22h-2.96l-2.18-3.66h-1.71v3.66h-2.62Zm2.62-5.95h2.4c.31,0,.58-.15.8-.44.22-.29.34-.67.34-1.13s-.13-.84-.38-1.12c-.26-.28-.53-.42-.83-.42h-2.32v3.1Z"/>
    <path class="cls-4" d="m161.27,15.21s-.14-.12-.34-.24c-.19-.12-.43-.24-.72-.37s-.6-.24-.94-.34c-.34-.1-.68-.14-1.02-.14-.94,0-1.41.31-1.41.94,0,.19.05.35.15.48.1.13.25.24.45.34.2.1.45.19.74.28.3.09.64.18,1.04.29.54.15,1.03.31,1.47.49.44.18.81.39,1.11.66.3.26.54.58.7.95.17.37.25.82.25,1.34,0,.64-.12,1.18-.36,1.62-.24.44-.56.8-.95,1.07s-.85.47-1.36.59c-.51.12-1.04.18-1.58.18-.42,0-.84-.03-1.28-.1-.44-.06-.86-.16-1.28-.28s-.82-.27-1.21-.44c-.39-.17-.75-.37-1.08-.59l1.15-2.29c.04.05.18.15.42.3.23.15.52.3.87.45s.73.28,1.16.4c.43.12.86.18,1.3.18.93,0,1.39-.28,1.39-.85,0-.21-.07-.39-.21-.53-.14-.14-.33-.26-.58-.38-.25-.11-.54-.22-.87-.31-.34-.1-.7-.2-1.1-.32-.52-.16-.98-.33-1.36-.52-.38-.19-.7-.4-.95-.65-.25-.25-.44-.53-.56-.85-.12-.32-.18-.69-.18-1.12,0-.6.11-1.13.34-1.58.22-.46.53-.85.91-1.16.38-.31.83-.55,1.34-.71.51-.16,1.04-.24,1.61-.24.39,0,.78.04,1.17.11.38.08.75.17,1.1.29.35.12.68.25.98.4s.58.3.84.45l-1.15,2.18Z"/>
    <path class="cls-4" d="m163.86,24.51c.21.07.41.13.6.16.19.03.35.05.5.05.31,0,.55-.11.72-.32.17-.21.33-.6.46-1.15l-3.2-8.4h2.64l1.95,6.21,1.68-6.21h2.4l-3.2,9.76c-.22.69-.62,1.26-1.2,1.69-.58.43-1.26.65-2.05.65-.21,0-.43-.02-.65-.06-.22-.04-.44-.1-.66-.18v-2.19Z"/>
    <path class="cls-4" d="m175.75,23.4c-.71,0-1.42-.11-2.11-.34-.69-.23-1.28-.56-1.76-1l.91-1.57c.51.35,1.01.62,1.5.82s.95.29,1.4.29c.33,0,.59-.06.77-.18.18-.12.27-.29.27-.51s-.11-.4-.34-.54c-.23-.13-.63-.27-1.21-.42-.57-.16-1.04-.31-1.43-.46-.39-.15-.71-.31-.95-.5-.25-.18-.42-.39-.53-.62-.11-.23-.16-.51-.16-.83,0-.43.08-.82.26-1.17s.41-.65.7-.9.65-.44,1.06-.58c.41-.14.86-.21,1.34-.21.63,0,1.22.09,1.77.26.55.17,1.08.48,1.59.93l-.99,1.54c-.48-.33-.91-.57-1.28-.72-.37-.15-.74-.22-1.09-.22-.28,0-.51.06-.7.17-.19.11-.29.29-.29.54s.1.41.31.53c.21.12.59.25,1.16.38.6.16,1.1.32,1.51.48.41.16.74.34,1,.54.26.2.44.42.56.68.12.26.18.56.18.91,0,.83-.31,1.49-.93,1.98-.62.49-1.46.74-2.51.74Z"/>
    <path class="cls-4" d="m185.86,22.79c-.35.15-.75.29-1.21.42-.45.13-.91.19-1.37.19-.32,0-.62-.04-.9-.12s-.53-.21-.74-.38c-.21-.18-.38-.41-.5-.7-.12-.29-.18-.63-.18-1.04v-4.38h-1.07v-1.94h1.07v-2.67h2.56v2.67h1.71v1.94h-1.71v3.5c0,.28.07.48.21.6s.31.18.53.18c.19,0,.39-.03.59-.1.2-.06.38-.13.53-.21l.5,2.03Z"/>
    <path class="cls-4" d="m190.66,23.4c-.7,0-1.34-.11-1.9-.34-.56-.23-1.04-.54-1.42-.94-.39-.39-.69-.85-.89-1.37-.2-.52-.3-1.06-.3-1.62,0-.61.1-1.18.3-1.72.2-.54.5-1.01.88-1.42.38-.41.86-.73,1.42-.96.56-.23,1.2-.35,1.91-.35s1.35.12,1.9.35c.55.23,1.02.55,1.41.95s.67.86.87,1.38c.2.52.3,1.07.3,1.65,0,.15,0,.3-.02.44-.01.14-.03.27-.05.38h-6.21c.04.57.25,1,.62,1.29.37.29.79.44,1.26.44.37,0,.73-.09,1.08-.27.35-.18.58-.43.7-.74l2.18.61c-.33.66-.84,1.2-1.54,1.62s-1.53.62-2.5.62Zm1.78-5.15c-.05-.53-.25-.95-.58-1.26-.33-.31-.74-.46-1.23-.46s-.92.16-1.24.47c-.33.31-.51.73-.57,1.26h3.62Z"/>
    <path class="cls-4" d="m209.59,23.24h-2.56v-4.72c0-.55-.1-.96-.3-1.21-.2-.25-.46-.38-.78-.38-.17,0-.34.04-.52.11s-.34.18-.49.31-.29.29-.41.47c-.12.18-.22.38-.3.59v4.82h-2.56v-4.72c0-.55-.1-.96-.3-1.21-.2-.25-.46-.38-.78-.38-.34,0-.67.14-1,.41-.33.27-.56.63-.71,1.08v4.82h-2.56v-8.4h2.3v1.41c.31-.51.73-.9,1.26-1.17.53-.27,1.14-.4,1.85-.4.35,0,.66.04.92.13.26.09.49.2.68.35.19.15.35.32.46.52.12.2.2.41.26.63.32-.52.74-.92,1.26-1.21.52-.28,1.12-.42,1.79-.42.53,0,.96.1,1.29.3.33.2.58.45.76.77.18.31.3.66.36,1.03s.09.74.09,1.09v5.38Z"/>
    <path class="cls-4" d="m214.58,23.4c-.71,0-1.42-.11-2.11-.34-.69-.23-1.28-.56-1.76-1l.91-1.57c.51.35,1.01.62,1.5.82s.95.29,1.4.29c.33,0,.59-.06.77-.18.18-.12.27-.29.27-.51s-.11-.4-.34-.54c-.23-.13-.63-.27-1.21-.42-.57-.16-1.04-.31-1.43-.46-.39-.15-.71-.31-.95-.5-.25-.18-.42-.39-.53-.62-.11-.23-.16-.51-.16-.83,0-.43.08-.82.26-1.17s.41-.65.7-.9.65-.44,1.06-.58c.41-.14.86-.21,1.34-.21.63,0,1.22.09,1.77.26.55.17,1.08.48,1.59.93l-.99,1.54c-.48-.33-.91-.57-1.28-.72-.37-.15-.74-.22-1.09-.22-.28,0-.51.06-.7.17-.19.11-.29.29-.29.54s.1.41.31.53c.21.12.59.25,1.16.38.6.16,1.1.32,1.51.48.41.16.74.34,1,.54.26.2.44.42.56.68.12.26.18.56.18.91,0,.83-.31,1.49-.93,1.98-.62.49-1.46.74-2.51.74Z"/>
  </g>
  <g>
    <path class="cls-4" d="m50.89,37.76v-8.52h2.89c.68,0,1.27.11,1.78.34.51.22.93.53,1.27.91s.6.83.77,1.35.26,1.07.26,1.65c0,.65-.1,1.23-.29,1.76-.19.52-.47.97-.82,1.34-.36.37-.78.66-1.28.86-.5.2-1.06.31-1.69.31h-2.89Zm6.13-4.27c0-.51-.07-.98-.22-1.41-.14-.43-.35-.8-.63-1.11-.28-.31-.61-.55-1.01-.73-.4-.17-.86-.26-1.38-.26h-2.05v7.03h2.05c.53,0,.99-.09,1.4-.27.4-.18.74-.43,1.01-.74.27-.32.48-.69.62-1.12.14-.43.21-.89.21-1.4Z"/>
    <path class="cls-4" d="m59.31,30.2v-1.2h.82v1.2h-.82Zm0,7.56v-6.25h.82v6.25h-.82Z"/>
    <path class="cls-4" d="m64,37.88c-.49,0-.96-.08-1.43-.24-.46-.16-.86-.39-1.2-.7l.37-.55c.35.29.71.5,1.07.65.36.14.75.22,1.17.22.5,0,.91-.1,1.21-.31s.45-.49.45-.87c0-.18-.04-.32-.12-.44-.08-.12-.2-.22-.35-.31-.16-.09-.35-.17-.59-.23-.24-.07-.51-.14-.82-.21-.36-.09-.67-.18-.94-.26-.26-.09-.48-.19-.65-.3-.17-.11-.3-.25-.38-.41-.08-.16-.13-.37-.13-.62,0-.31.06-.59.19-.83s.29-.44.5-.59c.21-.16.46-.27.74-.35.28-.08.59-.12.91-.12.48,0,.92.08,1.31.23.39.16.71.36.95.62l-.4.48c-.23-.24-.51-.42-.85-.54-.33-.12-.68-.18-1.04-.18-.22,0-.42.02-.6.07-.18.04-.35.11-.49.21-.14.1-.25.22-.33.37s-.12.32-.12.52c0,.17.03.3.08.41s.15.19.28.27c.13.08.29.14.49.2s.43.12.71.19c.4.1.75.19,1.06.29.3.1.56.21.76.34s.36.28.46.47c.1.18.16.41.16.67,0,.58-.22,1.03-.66,1.37-.44.34-1.03.5-1.78.5Z"/>
    <path class="cls-4" d="m67.33,34.62c0-.44.08-.86.23-1.25.15-.39.37-.73.64-1.03s.61-.52.99-.69.81-.25,1.27-.25c.59,0,1.11.13,1.55.4.44.27.77.63,1,1.09l-.79.25c-.18-.32-.42-.57-.74-.75-.32-.18-.67-.27-1.05-.27-.32,0-.62.06-.89.19-.28.13-.52.3-.72.52-.2.22-.36.48-.48.79-.12.3-.17.64-.17,1s.06.68.18,1c.12.31.28.58.49.81s.45.41.73.54c.28.13.57.2.88.2.2,0,.4-.03.59-.08.2-.06.38-.13.55-.23s.31-.21.43-.34c.12-.13.2-.26.25-.41l.8.24c-.09.22-.22.43-.38.62s-.37.35-.59.49c-.23.14-.48.25-.76.32-.28.08-.56.11-.86.11-.46,0-.88-.09-1.26-.26-.38-.17-.72-.41-1-.71-.28-.3-.5-.65-.65-1.04s-.23-.81-.23-1.26Z"/>
    <path class="cls-4" d="m76.96,37.88c-.46,0-.87-.09-1.25-.26-.38-.17-.7-.41-.98-.7s-.49-.64-.64-1.03c-.15-.39-.23-.8-.23-1.24s.08-.86.23-1.25.37-.74.65-1.03c.28-.3.6-.53.98-.71.38-.18.79-.26,1.24-.26s.86.09,1.24.26c.38.18.71.41.98.71.28.3.49.64.65,1.03.16.39.23.81.23,1.25s-.08.84-.23,1.24c-.15.39-.37.74-.64,1.03-.28.3-.6.53-.98.7-.38.17-.8.26-1.25.26Zm-2.27-3.22c0,.35.06.68.18.98.12.3.28.56.49.79s.44.41.72.53c.28.13.57.19.88.19s.61-.07.88-.2c.28-.13.52-.31.73-.54s.37-.49.49-.8c.12-.3.18-.63.18-.98s-.06-.67-.18-.98c-.12-.31-.28-.58-.49-.8s-.45-.41-.73-.54c-.28-.13-.57-.2-.88-.2s-.6.07-.88.2c-.27.13-.51.31-.72.55s-.37.5-.49.81c-.12.31-.18.64-.18.99Z"/>
    <path class="cls-4" d="m83.08,37.76l-2.54-6.25h.84l2.15,5.5,2.16-5.5h.79l-2.54,6.25h-.85Z"/>
    <path class="cls-4" d="m90.08,37.88c-.46,0-.87-.09-1.25-.26-.38-.17-.71-.41-.99-.71-.28-.3-.5-.65-.65-1.04s-.23-.81-.23-1.26.08-.85.23-1.24c.16-.39.37-.73.65-1.02.28-.29.61-.52.99-.7.38-.17.8-.26,1.25-.26s.87.09,1.25.26c.38.17.71.41.98.7.27.3.48.64.64,1.02.15.38.23.79.23,1.22v.19c0,.06,0,.11-.01.13h-5.35c.02.34.1.65.23.93.13.28.3.53.51.74.21.21.45.37.71.49.27.12.55.17.86.17.2,0,.4-.03.6-.08.2-.06.38-.13.55-.23.17-.1.32-.21.46-.35.14-.14.24-.29.31-.46l.71.19c-.1.23-.23.44-.41.63-.18.19-.38.35-.61.49-.23.14-.49.25-.77.32-.28.08-.57.11-.88.11Zm2.3-3.58c-.02-.34-.1-.64-.23-.92s-.3-.51-.5-.71-.44-.36-.71-.47c-.27-.11-.55-.17-.86-.17s-.59.06-.86.17c-.27.11-.51.27-.71.47-.2.2-.37.44-.49.72-.12.28-.2.58-.22.91h4.6Z"/>
    <path class="cls-4" d="m97.55,32.23c-.55.02-1.03.17-1.44.46-.41.29-.7.68-.86,1.19v3.89h-.82v-6.25h.77v1.5c.23-.48.54-.86.94-1.13.39-.27.81-.41,1.26-.41.06,0,.12,0,.16.01v.74Z"/>
    <path class="cls-4" d="m104.41,37.46s-.12.06-.21.1c-.09.04-.2.08-.32.12s-.26.08-.41.11-.31.05-.48.05c-.18,0-.34-.02-.5-.07-.16-.05-.3-.12-.42-.22-.12-.1-.22-.23-.29-.38-.07-.15-.11-.33-.11-.53v-4.48h-.86v-.65h.86v-2.11h.82v2.11h1.44v.65h-1.44v4.25c.02.23.1.4.25.51.15.11.32.16.51.16.23,0,.44-.04.61-.11s.29-.13.34-.16l.22.66Z"/>
    <path class="cls-4" d="m110.69,37.76h-.82v-3.49c0-.71-.12-1.24-.37-1.6s-.6-.53-1.07-.53c-.23,0-.46.05-.69.14-.23.09-.44.22-.64.38-.2.16-.37.35-.52.56-.15.22-.26.45-.33.71v3.83h-.82v-8.76h.82v3.92c.25-.47.59-.84,1.03-1.12.44-.27.92-.41,1.43-.41.36,0,.66.07.91.2.25.13.45.32.61.55s.28.52.35.85.11.7.11,1.1v3.66Z"/>
    <path class="cls-4" d="m115.13,37.88c-.46,0-.87-.09-1.25-.26-.38-.17-.71-.41-.99-.71-.28-.3-.5-.65-.65-1.04s-.23-.81-.23-1.26.08-.85.23-1.24c.16-.39.37-.73.65-1.02.28-.29.61-.52.99-.7.38-.17.8-.26,1.25-.26s.87.09,1.25.26c.38.17.71.41.98.7.27.3.48.64.64,1.02.15.38.23.79.23,1.22v.19c0,.06,0,.11-.01.13h-5.35c.02.34.1.65.23.93.13.28.3.53.51.74.21.21.45.37.71.49.27.12.55.17.86.17.2,0,.4-.03.6-.08.2-.06.38-.13.55-.23.17-.1.32-.21.46-.35.14-.14.24-.29.31-.46l.71.19c-.1.23-.23.44-.41.63-.18.19-.38.35-.61.49-.23.14-.49.25-.77.32-.28.08-.57.11-.88.11Zm2.3-3.58c-.02-.34-.1-.64-.23-.92s-.3-.51-.5-.71-.44-.36-.71-.47c-.27-.11-.55-.17-.86-.17s-.59.06-.86.17c-.27.11-.51.27-.71.47-.2.2-.37.44-.49.72-.12.28-.2.58-.22.91h4.6Z"/>
    <path class="cls-4" d="m122.7,37.76v-8.52h3.53c.37,0,.71.08,1.01.23.31.16.57.36.8.61.22.25.4.54.53.86s.19.64.19.97c0,.35-.06.69-.18,1.01-.12.32-.29.61-.5.86-.22.25-.47.45-.77.6-.3.15-.63.23-1,.23h-2.76v3.14h-.84Zm.84-3.89h2.72c.25,0,.47-.05.68-.16.2-.11.38-.25.52-.43s.26-.39.34-.62.12-.48.12-.74-.05-.51-.14-.75c-.09-.24-.22-.44-.37-.62-.16-.18-.34-.31-.55-.41s-.43-.15-.67-.15h-2.65v3.89Z"/>
    <path class="cls-4" d="m132.55,37.88c-.46,0-.87-.09-1.25-.26-.38-.17-.7-.41-.98-.7s-.49-.64-.64-1.03c-.15-.39-.23-.8-.23-1.24s.08-.86.23-1.25.37-.74.65-1.03c.28-.3.6-.53.98-.71.38-.18.79-.26,1.24-.26s.86.09,1.24.26c.38.18.71.41.98.71.28.3.49.64.65,1.03.16.39.23.81.23,1.25s-.08.84-.23,1.24c-.15.39-.37.74-.64,1.03-.28.3-.6.53-.98.7-.38.17-.8.26-1.25.26Zm-2.27-3.22c0,.35.06.68.18.98.12.3.28.56.49.79s.44.41.72.53c.28.13.57.19.88.19s.61-.07.88-.2c.28-.13.52-.31.73-.54s.37-.49.49-.8c.12-.3.18-.63.18-.98s-.06-.67-.18-.98c-.12-.31-.28-.58-.49-.8s-.45-.41-.73-.54c-.28-.13-.57-.2-.88-.2s-.6.07-.88.2c-.27.13-.51.31-.72.55s-.37.5-.49.81c-.12.31-.18.64-.18.99Z"/>
    <path class="cls-4" d="m139.94,37.46s-.12.06-.21.1c-.09.04-.2.08-.32.12s-.26.08-.41.11-.31.05-.48.05c-.18,0-.34-.02-.5-.07-.16-.05-.3-.12-.42-.22-.12-.1-.22-.23-.29-.38-.07-.15-.11-.33-.11-.53v-4.48h-.86v-.65h.86v-2.11h.82v2.11h1.44v.65h-1.44v4.25c.02.23.1.4.25.51.15.11.32.16.51.16.23,0,.44-.04.61-.11s.29-.13.34-.16l.22.66Z"/>
    <path class="cls-4" d="m143.51,37.88c-.46,0-.87-.09-1.25-.26-.38-.17-.71-.41-.99-.71-.28-.3-.5-.65-.65-1.04s-.23-.81-.23-1.26.08-.85.23-1.24c.16-.39.37-.73.65-1.02.28-.29.61-.52.99-.7.38-.17.8-.26,1.25-.26s.87.09,1.25.26c.38.17.71.41.98.7.27.3.48.64.64,1.02.15.38.23.79.23,1.22v.19c0,.06,0,.11-.01.13h-5.35c.02.34.1.65.23.93.13.28.3.53.51.74.21.21.45.37.71.49.27.12.55.17.86.17.2,0,.4-.03.6-.08.2-.06.38-.13.55-.23.17-.1.32-.21.46-.35.14-.14.24-.29.31-.46l.71.19c-.1.23-.23.44-.41.63-.18.19-.38.35-.61.49-.23.14-.49.25-.77.32-.28.08-.57.11-.88.11Zm2.3-3.58c-.02-.34-.1-.64-.23-.92s-.3-.51-.5-.71-.44-.36-.71-.47c-.27-.11-.55-.17-.86-.17s-.59.06-.86.17c-.27.11-.51.27-.71.47-.2.2-.37.44-.49.72-.12.28-.2.58-.22.91h4.6Z"/>
    <path class="cls-4" d="m153.11,37.76h-.82v-3.49c0-.74-.11-1.28-.33-1.62-.22-.34-.56-.5-1.01-.5-.24,0-.48.04-.72.13-.24.09-.46.21-.67.37s-.39.35-.55.57c-.16.22-.28.46-.35.71v3.83h-.82v-6.25h.74v1.42c.26-.46.62-.82,1.1-1.1.48-.28.99-.42,1.55-.42.34,0,.64.06.88.19s.43.31.58.54c.14.23.25.52.31.85.06.34.1.71.1,1.12v3.66Z"/>
    <path class="cls-4" d="m157.79,37.46s-.12.06-.21.1c-.09.04-.2.08-.32.12s-.26.08-.41.11-.31.05-.48.05c-.18,0-.34-.02-.5-.07-.16-.05-.3-.12-.42-.22-.12-.1-.22-.23-.29-.38-.07-.15-.11-.33-.11-.53v-4.48h-.86v-.65h.86v-2.11h.82v2.11h1.44v.65h-1.44v4.25c.02.23.1.4.25.51.15.11.32.16.51.16.23,0,.44-.04.61-.11s.29-.13.34-.16l.22.66Z"/>
    <path class="cls-4" d="m158.81,30.2v-1.2h.82v1.2h-.82Zm0,7.56v-6.25h.82v6.25h-.82Z"/>
    <path class="cls-4" d="m163,37.88c-.3,0-.57-.05-.82-.15-.25-.1-.47-.24-.66-.41-.19-.18-.33-.38-.44-.62-.1-.24-.16-.49-.16-.76s.06-.52.19-.76c.13-.23.31-.43.54-.6s.51-.3.83-.39c.32-.09.67-.14,1.06-.14.32,0,.64.03.97.08.33.06.62.14.88.24v-.56c0-.55-.16-.99-.47-1.31-.31-.32-.74-.49-1.3-.49-.32,0-.65.06-.98.19-.34.13-.68.31-1.02.55l-.29-.54c.81-.54,1.59-.82,2.35-.82s1.4.22,1.85.66c.45.44.67,1.05.67,1.82v2.82c0,.22.1.34.3.34v.72c-.14.02-.24.04-.31.04-.21,0-.37-.05-.49-.16-.12-.1-.18-.25-.19-.43l-.02-.49c-.29.38-.65.66-1.09.86-.44.2-.91.3-1.41.3Zm.19-.62c.42,0,.81-.08,1.17-.24.36-.16.63-.37.81-.64.07-.07.13-.15.16-.23.04-.08.05-.16.05-.23v-1.02c-.27-.1-.55-.18-.85-.24s-.59-.08-.89-.08c-.58,0-1.04.12-1.4.36-.36.24-.54.56-.54.95,0,.19.04.37.11.54.08.17.18.31.31.44.13.12.29.22.47.29.18.07.38.11.59.11Z"/>
    <path class="cls-4" d="m168,29h.82v7.34c0,.23.06.41.19.55.13.13.31.2.54.2.09,0,.19-.01.31-.04s.23-.06.34-.1l.14.66c-.15.06-.34.12-.56.16-.22.04-.41.06-.57.06-.38,0-.67-.11-.89-.32s-.32-.51-.32-.89v-7.62Z"/>
  </g>
</svg>