<?xml version="1.0" encoding="UTF-8"?>
<svg id="katman_1" data-name="katman 1" xmlns="http://www.w3.org/2000/svg" xmlns:xlink="http://www.w3.org/1999/xlink" viewBox="0 0 250 50">
  <defs>
    <style>
      .cls-1 {
        fill: url(#Adsız_degrade_18-9);
      }

      .cls-1, .cls-2, .cls-3, .cls-4, .cls-5, .cls-6, .cls-7, .cls-8, .cls-9, .cls-10 {
        stroke-width: 0px;
      }

      .cls-2 {
        fill: url(#Adsız_degrade_18-6);
      }

      .cls-3 {
        fill: url(#Adsız_degrade_18-5);
      }

      .cls-4 {
        fill: url(#Adsız_degrade_18-4);
      }

      .cls-5 {
        fill: url(#Adsız_degrade_18-3);
      }

      .cls-6 {
        fill: url(#Adsız_degrade_18-8);
      }

      .cls-7 {
        fill: url(#Adsız_degrade_18-7);
      }

      .cls-8 {
        fill: url(#Adsız_degrade_18-2);
      }

      .cls-9 {
        fill: url(#Adsız_degrade_18);
      }

      .cls-10 {
        fill: url(#Adsız_degrade_18-10);
      }
    </style>
    <linearGradient id="Adsız_degrade_18" data-name="Adsız degrade 18" x1="9.64" y1="24.88" x2="181.5" y2="65.19" gradientUnits="userSpaceOnUse">
      <stop offset="0" stop-color="#e11bd4"/>
      <stop offset="1" stop-color="#5c38e4"/>
    </linearGradient>
    <linearGradient id="Adsız_degrade_18-2" data-name="Adsız degrade 18" x1="10.18" y1="22.59" x2="182.04" y2="62.91" xlink:href="#Adsız_degrade_18"/>
    <linearGradient id="Adsız_degrade_18-3" data-name="Adsız degrade 18" x1="11.31" y1="17.75" x2="183.18" y2="58.06" xlink:href="#Adsız_degrade_18"/>
    <linearGradient id="Adsız_degrade_18-4" data-name="Adsız degrade 18" x1="12.54" y1="12.5" x2="184.41" y2="52.81" xlink:href="#Adsız_degrade_18"/>
    <linearGradient id="Adsız_degrade_18-5" data-name="Adsız degrade 18" x1="13.51" y1="8.36" x2="185.38" y2="48.68" xlink:href="#Adsız_degrade_18"/>
    <linearGradient id="Adsız_degrade_18-6" data-name="Adsız degrade 18" x1="14.49" y1="4.22" x2="186.35" y2="44.53" xlink:href="#Adsız_degrade_18"/>
    <linearGradient id="Adsız_degrade_18-7" data-name="Adsız degrade 18" x1="15.44" y1=".17" x2="187.3" y2="40.48" xlink:href="#Adsız_degrade_18"/>
    <linearGradient id="Adsız_degrade_18-8" data-name="Adsız degrade 18" x1="17.14" y1="-7.08" x2="189" y2="33.24" xlink:href="#Adsız_degrade_18"/>
    <linearGradient id="Adsız_degrade_18-9" data-name="Adsız degrade 18" x1="18.13" y1="-11.32" x2="190" y2="28.99" xlink:href="#Adsız_degrade_18"/>
    <linearGradient id="Adsız_degrade_18-10" data-name="Adsız degrade 18" x1="18.74" y1="-13.93" x2="190.61" y2="26.38" xlink:href="#Adsız_degrade_18"/>
  </defs>
  <path class="cls-9" d="m18.99,13.81v22.06h-5.1v-9.04H5.1v9.04H0V13.81h5.1v8.55h8.79v-8.55h5.1Z"/>
  <path class="cls-8" d="m27.75,36.19c-1.68,0-2.95-.52-3.81-1.57-.86-1.04-1.29-2.58-1.29-4.61v-10.44h4.97v9.35c0,.99.2,1.75.59,2.28.39.53.95.79,1.68.79.66,0,1.3-.18,1.92-.53.62-.35,1.17-.96,1.65-1.83v-10.07h4.97v10.72c0,.5.08.84.23,1.04.16.2.43.32.82.36v4.19c-.48.1-.88.17-1.21.2-.33.03-.63.05-.9.05-1.78,0-2.8-.69-3.04-2.08l-.09-.99c-.75,1.08-1.67,1.87-2.78,2.38-1.11.51-2.35.76-3.71.76Z"/>
  <path class="cls-5" d="m68.08,35.88h-4.97v-9.17c0-1.08-.2-1.86-.59-2.35-.39-.49-.9-.73-1.52-.73-.33,0-.67.07-1.01.22-.34.15-.66.35-.95.61-.29.26-.55.56-.79.92-.24.35-.43.74-.57,1.15v9.35h-4.97v-9.17c0-1.08-.2-1.86-.59-2.35-.39-.49-.9-.73-1.52-.73-.66,0-1.31.27-1.94.79-.63.53-1.09,1.23-1.38,2.1v9.35h-4.97v-16.31h4.47v2.73c.6-.99,1.41-1.75,2.44-2.27,1.02-.52,2.22-.78,3.59-.78.68,0,1.28.08,1.79.25.51.17.95.39,1.32.68.37.29.67.63.9,1.01.23.38.39.79.5,1.23.62-1.01,1.44-1.8,2.45-2.35,1.01-.55,2.18-.82,3.48-.82,1.04,0,1.87.19,2.5.57.63.38,1.12.88,1.48,1.49s.59,1.28.7,2c.11.72.17,1.43.17,2.11v10.44Z"/>
  <path class="cls-4" d="m75.97,36.19c-.81,0-1.56-.13-2.25-.39-.69-.26-1.29-.62-1.79-1.09-.5-.46-.89-1.01-1.18-1.65s-.44-1.32-.44-2.07c0-.81.17-1.54.51-2.21.34-.66.82-1.23,1.45-1.71.62-.48,1.36-.85,2.21-1.12s1.79-.4,2.83-.4c.68,0,1.35.06,1.99.17.64.12,1.2.29,1.68.51v-.75c0-1.88-1.09-2.83-3.26-2.83-.89,0-1.74.15-2.55.45-.81.3-1.66.75-2.55,1.35l-1.46-3.11c1.08-.7,2.19-1.23,3.35-1.58s2.39-.53,3.7-.53c2.47,0,4.37.58,5.72,1.74,1.35,1.16,2.02,2.86,2.02,5.1v4.19c0,.5.08.84.23,1.04.16.2.43.32.82.36v4.19c-.44.1-.83.17-1.18.2-.35.03-.67.05-.96.05-.93,0-1.64-.18-2.11-.54s-.78-.87-.9-1.54l-.09-.75c-.73.93-1.59,1.65-2.59,2.14-1.01.5-2.07.75-3.19.75Zm1.46-3.57c.54,0,1.06-.09,1.57-.28.51-.19.93-.43,1.26-.75.48-.37.71-.77.71-1.18v-1.55c-.43-.16-.91-.3-1.41-.39-.51-.09-.98-.14-1.41-.14-.91,0-1.66.21-2.25.62-.59.42-.89.95-.89,1.62,0,.6.23,1.09.68,1.48.46.38,1.04.57,1.74.57Z"/>
  <path class="cls-3" d="m105.27,35.88h-4.97v-9.17c0-1.08-.2-1.86-.61-2.35-.4-.49-.94-.73-1.6-.73-.35,0-.71.07-1.06.22-.35.15-.69.35-1.03.61-.33.26-.63.56-.89.92-.26.35-.46.74-.6,1.15v9.35h-4.97v-16.31h4.47v2.73c.6-.97,1.45-1.72,2.55-2.25,1.1-.53,2.36-.79,3.79-.79,1.06,0,1.91.19,2.55.57.64.38,1.14.88,1.49,1.49.35.61.58,1.28.7,2,.11.72.17,1.43.17,2.11v10.44Z"/>
  <path class="cls-2" d="m113.19,36.19c-.81,0-1.56-.13-2.25-.39-.69-.26-1.29-.62-1.79-1.09-.5-.46-.89-1.01-1.18-1.65s-.44-1.32-.44-2.07c0-.81.17-1.54.51-2.21.34-.66.82-1.23,1.45-1.71.62-.48,1.36-.85,2.21-1.12s1.79-.4,2.83-.4c.68,0,1.35.06,1.99.17.64.12,1.2.29,1.68.51v-.75c0-1.88-1.09-2.83-3.26-2.83-.89,0-1.74.15-2.55.45-.81.3-1.66.75-2.55,1.35l-1.46-3.11c1.08-.7,2.19-1.23,3.35-1.58s2.39-.53,3.7-.53c2.47,0,4.37.58,5.72,1.74,1.35,1.16,2.02,2.86,2.02,5.1v4.19c0,.5.08.84.23,1.04.16.2.43.32.82.36v4.19c-.44.1-.83.17-1.18.2-.35.03-.67.05-.96.05-.93,0-1.64-.18-2.11-.54s-.78-.87-.9-1.54l-.09-.75c-.73.93-1.59,1.65-2.59,2.14-1.01.5-2.07.75-3.19.75Zm1.46-3.57c.54,0,1.06-.09,1.57-.28.51-.19.93-.43,1.26-.75.48-.37.71-.77.71-1.18v-1.55c-.43-.16-.91-.3-1.41-.39-.51-.09-.98-.14-1.41-.14-.91,0-1.66.21-2.25.62-.59.42-.89.95-.89,1.62,0,.6.23,1.09.68,1.48.46.38,1.04.57,1.74.57Z"/>
  <path class="cls-7" d="m133.2,36.19c-1.39,0-2.76-.22-4.1-.67-1.35-.44-2.49-1.09-3.42-1.94l1.77-3.04c.99.68,1.96,1.21,2.9,1.58.94.37,1.85.56,2.72.56.64,0,1.14-.11,1.49-.34.35-.23.53-.56.53-.99s-.22-.78-.67-1.04-1.23-.53-2.35-.82c-1.1-.31-2.03-.61-2.78-.9-.75-.29-1.37-.61-1.85-.96-.48-.35-.82-.76-1.03-1.21s-.31-1-.31-1.62c0-.83.16-1.59.5-2.27.33-.68.79-1.26,1.37-1.74.58-.48,1.27-.85,2.07-1.12.8-.27,1.66-.4,2.59-.4,1.22,0,2.36.17,3.43.5,1.07.33,2.1.93,3.09,1.8l-1.92,2.98c-.93-.64-1.76-1.11-2.49-1.4-.73-.29-1.43-.43-2.11-.43-.54,0-1,.11-1.37.33-.37.22-.56.57-.56,1.04s.2.8.6,1.03c.4.23,1.15.48,2.25.75,1.16.31,2.14.62,2.94.93.8.31,1.44.66,1.94,1.04.5.38.86.82,1.09,1.32.23.5.34,1.09.34,1.77,0,1.62-.6,2.9-1.8,3.85-1.2.95-2.83,1.43-4.88,1.43Z"/>
  <path class="cls-6" d="m154.95,13.81h4.6l8.05,22.06h-5.22l-1.71-4.94h-6.87l-1.68,4.94h-5.22l8.05-22.06Zm4.88,13.61l-2.58-7.8-2.64,7.8h5.22Z"/>
  <path class="cls-1" d="m169.77,35.88V13.81h5.1v22.06h-5.1Z"/>
  <path class="cls-10" d="m179.09,35.88V13.81h8.23c1.82,0,3.42.29,4.78.87s2.51,1.37,3.43,2.36,1.62,2.16,2.08,3.5c.47,1.34.7,2.76.7,4.27,0,1.68-.26,3.2-.78,4.55-.52,1.36-1.26,2.52-2.22,3.48s-2.12,1.71-3.48,2.24c-1.36.53-2.86.79-4.52.79h-8.23Zm14.04-11.06c0-.97-.13-1.86-.39-2.66-.26-.8-.64-1.48-1.13-2.07s-1.11-1.03-1.83-1.34-1.54-.47-2.45-.47h-3.14v13.11h3.14c.93,0,1.76-.16,2.49-.5.72-.33,1.33-.79,1.82-1.38.49-.59.86-1.28,1.12-2.08.26-.8.39-1.67.39-2.62Z"/>
</svg>